<svg width="11" height="14" viewBox="0 0 11 14" fill="none" xmlns="http://www.w3.org/2000/svg">
<path fill-rule="evenodd" clip-rule="evenodd" d="M3.80615 4.33366C3.80615 3.27511 4.66427 2.41699 5.72282 2.41699C6.78136 2.41699 7.63948 3.27511 7.63948 4.33366C7.63948 5.3922 6.78136 6.25033 5.72282 6.25033C4.66427 6.25033 3.80615 5.3922 3.80615 4.33366ZM5.72282 0.916992C3.83584 0.916992 2.30615 2.44669 2.30615 4.33366C2.30615 6.22063 3.83584 7.75033 5.72282 7.75033C7.60979 7.75033 9.13948 6.22063 9.13948 4.33366C9.13948 2.44669 7.60979 0.916992 5.72282 0.916992ZM3.03419 10.2424C3.39364 9.88296 3.88115 9.68103 4.38948 9.68103H7.05615C7.56448 9.68103 8.05199 9.88296 8.41144 10.2424C8.77088 10.6019 8.97282 11.0894 8.97282 11.5977V12.931C8.97282 13.3452 9.3086 13.681 9.72282 13.681C10.137 13.681 10.4728 13.3452 10.4728 12.931V11.5977C10.4728 10.6915 10.1128 9.8225 9.4721 9.18175C8.83135 8.541 7.96231 8.18103 7.05615 8.18103H4.38948C3.48333 8.18103 2.61428 8.541 1.97353 9.18175C1.33279 9.8225 0.972816 10.6915 0.972816 11.5977V12.931C0.972816 13.3452 1.3086 13.681 1.72282 13.681C2.13703 13.681 2.47282 13.3452 2.47282 12.931V11.5977C2.47282 11.0894 2.67475 10.6019 3.03419 10.2424Z" fill="#605F5F"/>
</svg>
