<svg width="14" height="14" viewBox="0 0 14 14" fill="none" xmlns="http://www.w3.org/2000/svg">
<path fill-rule="evenodd" clip-rule="evenodd" d="M7 1.75C4.10051 1.75 1.75 4.10051 1.75 7C1.75 9.8995 4.10051 12.25 7 12.25C9.8995 12.25 12.25 9.8995 12.25 7C12.25 4.10051 9.8995 1.75 7 1.75ZM0.25 7C0.25 3.27208 3.27208 0.25 7 0.25C10.7279 0.25 13.75 3.27208 13.75 7C13.75 10.7279 10.7279 13.75 7 13.75C3.27208 13.75 0.25 10.7279 0.25 7ZM7.75 6.25V3.66667C7.75 3.25245 7.41421 2.91667 7 2.91667C6.58579 2.91667 6.25 3.25245 6.25 3.66667V7C6.25 7.41421 6.58579 7.75 7 7.75H9.33333C9.74755 7.75 10.0833 7.41421 10.0833 7C10.0833 6.58579 9.74755 6.25 9.33333 6.25H7.75Z" fill="#605F5F"/>
</svg>
